<?xml version="1.0" standalone="no"?><!DOCTYPE svg PUBLIC "-//W3C//DTD SVG 1.1//EN" "http://www.w3.org/Graphics/SVG/1.1/DTD/svg11.dtd"><svg t="1512482188122" class="icon" style="" viewBox="0 0 1024 1024" version="1.1" xmlns="http://www.w3.org/2000/svg" p-id="2229" xmlns:xlink="http://www.w3.org/1999/xlink" width="300" height="300"><defs><style type="text/css">@font-face { font-family: "MICROSOFT YAHEI"; src: local("MICROSOFT YAHEI"); font-weight: 400; }
@font-face { font-family: "MICROSOFT YAHEI"; font-weight: 400; src: local("Microsoft YaHei UI"), local("Microsoft YaHei"), local("微软雅黑"), local("微軟雅黑"), local("WenQuanYi Micro Hei"), local("Droid Sans Fallback"); unicode-range: U+2E80-9FFF, U+F900-FAFF, U+FE30-FE6F, U+FF00-FFEF, U+1B000-1B0FF, U+20000-2FA1F; }
@font-face { font-family: "MICROSOFT YAHEI"; font-weight: bold; src: local("Microsoft YaHei UI"), local("Microsoft YaHei"), local("微软雅黑"), local("微軟雅黑"), local("WenQuanYi Micro Hei"), local("Droid Sans Fallback"); unicode-range: U+2E80-9FFF, U+F900-FAFF, U+FE30-FE6F, U+FF00-FFEF, U+1B000-1B0FF, U+20000-2FA1F; }
@font-face { font-family: TAHOMA; src: local("TAHOMA"); font-weight: 400; }
@font-face { font-family: TAHOMA; font-weight: 400; src: local("Microsoft YaHei UI"), local("Microsoft YaHei"), local("微软雅黑"), local("微軟雅黑"), local("WenQuanYi Micro Hei"), local("Droid Sans Fallback"); unicode-range: U+2E80-9FFF, U+F900-FAFF, U+FE30-FE6F, U+FF00-FFEF, U+1B000-1B0FF, U+20000-2FA1F; }
@font-face { font-family: TAHOMA; font-weight: bold; src: local("Microsoft YaHei UI"), local("Microsoft YaHei"), local("微软雅黑"), local("微軟雅黑"), local("WenQuanYi Micro Hei"), local("Droid Sans Fallback"); unicode-range: U+2E80-9FFF, U+F900-FAFF, U+FE30-FE6F, U+FF00-FFEF, U+1B000-1B0FF, U+20000-2FA1F; }
@font-face { font-family: 微软雅黑; src: local("微软雅黑"); font-weight: 400; }
@font-face { font-family: 微软雅黑; font-weight: 400; src: local("Microsoft YaHei UI"), local("Microsoft YaHei"), local("微软雅黑"), local("微軟雅黑"), local("WenQuanYi Micro Hei"), local("Droid Sans Fallback"); unicode-range: U+2E80-9FFF, U+F900-FAFF, U+FE30-FE6F, U+FF00-FFEF, U+1B000-1B0FF, U+20000-2FA1F; }
@font-face { font-family: 微软雅黑; font-weight: bold; src: local("Microsoft YaHei UI"), local("Microsoft YaHei"), local("微软雅黑"), local("微軟雅黑"), local("WenQuanYi Micro Hei"), local("Droid Sans Fallback"); unicode-range: U+2E80-9FFF, U+F900-FAFF, U+FE30-FE6F, U+FF00-FFEF, U+1B000-1B0FF, U+20000-2FA1F; }
@font-face { font-family: "MICROSOFT YAHEI"; src: local("MICROSOFT YAHEI"); font-weight: 700; }
@font-face { font-family: "MICROSOFT YAHEI"; font-weight: 700; src: local("Microsoft YaHei UI"), local("Microsoft YaHei"), local("微软雅黑"), local("微軟雅黑"), local("WenQuanYi Micro Hei"), local("Droid Sans Fallback"); unicode-range: U+2E80-9FFF, U+F900-FAFF, U+FE30-FE6F, U+FF00-FFEF, U+1B000-1B0FF, U+20000-2FA1F; }
@font-face { font-family: "MICROSOFT YAHEI"; font-weight: bold; src: local("Microsoft YaHei UI"), local("Microsoft YaHei"), local("微软雅黑"), local("微軟雅黑"), local("WenQuanYi Micro Hei"), local("Droid Sans Fallback"); unicode-range: U+2E80-9FFF, U+F900-FAFF, U+FE30-FE6F, U+FF00-FFEF, U+1B000-1B0FF, U+20000-2FA1F; }
@font-face { font-family: TAHOMA; src: local("TAHOMA"); font-weight: 700; }
@font-face { font-family: TAHOMA; font-weight: 700; src: local("Microsoft YaHei UI"), local("Microsoft YaHei"), local("微软雅黑"), local("微軟雅黑"), local("WenQuanYi Micro Hei"), local("Droid Sans Fallback"); unicode-range: U+2E80-9FFF, U+F900-FAFF, U+FE30-FE6F, U+FF00-FFEF, U+1B000-1B0FF, U+20000-2FA1F; }
@font-face { font-family: TAHOMA; font-weight: bold; src: local("Microsoft YaHei UI"), local("Microsoft YaHei"), local("微软雅黑"), local("微軟雅黑"), local("WenQuanYi Micro Hei"), local("Droid Sans Fallback"); unicode-range: U+2E80-9FFF, U+F900-FAFF, U+FE30-FE6F, U+FF00-FFEF, U+1B000-1B0FF, U+20000-2FA1F; }
@font-face { font-family: 微软雅黑; src: local("微软雅黑"); font-weight: 700; }
@font-face { font-family: 微软雅黑; font-weight: 700; src: local("Microsoft YaHei UI"), local("Microsoft YaHei"), local("微软雅黑"), local("微軟雅黑"), local("WenQuanYi Micro Hei"), local("Droid Sans Fallback"); unicode-range: U+2E80-9FFF, U+F900-FAFF, U+FE30-FE6F, U+FF00-FFEF, U+1B000-1B0FF, U+20000-2FA1F; }
@font-face { font-family: 微软雅黑; font-weight: bold; src: local("Microsoft YaHei UI"), local("Microsoft YaHei"), local("微软雅黑"), local("微軟雅黑"), local("WenQuanYi Micro Hei"), local("Droid Sans Fallback"); unicode-range: U+2E80-9FFF, U+F900-FAFF, U+FE30-FE6F, U+FF00-FFEF, U+1B000-1B0FF, U+20000-2FA1F; }
</style></defs><path d="M342.096 685.024v60.192l-37.776-1.152 37.776-60.192v1.152z" fill="#E8E9EA" p-id="2230"></path><path d="M342.096 685.024v60.192h38.992l-38.992-60.192z" fill="#DCDEE0" p-id="2231"></path><path d="M264.032 647.504v99.616l-63.312-1.936 63.312-99.616v1.936z" fill="#E8E9EA" p-id="2232"></path><path d="M264.032 647.504v99.616h65.216l-65.216-99.616z" fill="#DCDEE0" p-id="2233"></path><path d="M616.976 647.504v99.616l-63.312-1.936 63.312-99.616v1.936z" fill="#E8E9EA" p-id="2234"></path><path d="M616.976 647.504v99.616h65.216l-65.216-99.616z" fill="#DCDEE0" p-id="2235"></path><path d="M700.112 617.44v131.616l-83.136-2.496 83.136-131.648v2.528z" fill="#E8E9EA" p-id="2236"></path><path d="M700.112 617.44v131.616h85.664l-85.664-131.616z" fill="#DCDEE0" p-id="2237"></path><path d="M472.512 585.408v161.712l-102.976-3.088 102.976-161.712v3.088z" fill="#E8E9EA" p-id="2238"></path><path d="M472.512 585.408v161.712h106.096l-106.096-161.712z" fill="#DCDEE0" p-id="2239"></path><path d="M452.48 295.68h-103.28a10.56 10.56 0 0 1-6.048 19.184H182.016a10.544 10.544 0 0 1 0-21.088h130.64a6.496 6.496 0 0 0 6.496-6.512v-4.208a6.496 6.496 0 0 0-6.496-6.496H139.824a10.544 10.544 0 1 1 0-21.088h145.472a10.56 10.56 0 0 1 6.064-19.152h90.16a10.56 10.56 0 0 1 0 21.072h-32.32l0.16 0.128a6.512 6.512 0 0 0-5.264 6.368v4.256c0 3.104 2.208 5.76 5.264 6.368l-0.16 0.128h103.28a10.56 10.56 0 1 1 0.224 21.008h-0.224v0.032zM942.064 503.008H769.232a6.48 6.48 0 0 0-6.496 6.496v4.256c0 3.6 2.912 6.496 6.496 6.496h130.656a10.56 10.56 0 0 1 0 21.088H738.736a10.56 10.56 0 0 1-6.048-19.184h-103.296a10.528 10.528 0 0 1 0-21.056h103.328l-0.16-0.128a6.56 6.56 0 0 0 5.264-6.368v-4.256a6.544 6.544 0 0 0-5.264-6.368l0.16-0.128h-32.352a10.528 10.528 0 0 1 0-21.088h90.144a10.56 10.56 0 0 1 10.096 7.36 10.56 10.56 0 0 1-4 11.808h145.472a10.56 10.56 0 0 1 9.312 15.712 10.496 10.496 0 0 1-9.04 5.376l-0.288-0.016zM758.944 355.552h-15.36a9.584 9.584 0 1 1-0.224-19.168h15.6a9.568 9.568 0 1 1 0.208 19.168h-0.224z m-512.176 93.84h-15.36a9.584 9.584 0 0 1 0-19.152h15.392a9.584 9.584 0 0 1 0 19.152h-0.032z" fill="#EAEEEF" p-id="2240"></path><path d="M475.024 492.864h26.864v258.144h-26.864V492.864z" fill="#B2B2B2" p-id="2241"></path><path d="M501.888 752.4h-26.864a1.28 1.28 0 0 1-1.008-0.528 2.448 2.448 0 0 1-0.416-1.376V490.56c0-1.072 0.64-1.952 1.44-1.952h26.864c0.8 0 1.44 0.88 1.44 1.952v259.952a2.448 2.448 0 0 1-0.416 1.376 1.36 1.36 0 0 1-1.04 0.512z m-25.424-3.872h23.968v-256h-23.968v256z" fill="#2F2905" p-id="2242"></path><path d="M622.864 298.576l-78.768-77.808-110.8 0.608-77.984 78.688 0.592 110.688 78.768 77.84 110.784-0.576 77.968-78.688-0.56-110.752z m-83.2 175.2l-99.088 0.528-70.384-69.632-0.528-99.008 69.632-70.432 99.088-0.544 70.432 69.648 0.544 99.008-69.696 70.432z" fill="#FFD800" p-id="2243"></path><path d="M433.536 491.472l-80.464-79.552-0.608-113.104 0.848-0.848 78.768-79.536 113.168-0.544 80.48 79.408 0.608 113.104-0.848 0.848-78.8 79.52-113.152 0.704z m-74.704-81.984l77.056 76.176 108.384-0.56 76.24-76.992-0.576-108.288-77.024-76.16-108.384 0.576-76.24 76.992 0.544 108.256z m80.544 67.712l-0.848-0.832-71.232-70.48-0.608-101.36 0.832-0.848 70.512-71.328 101.504-0.56 72.192 71.328 0.56 101.408-0.848 0.864-70.528 71.232-101.536 0.576z m-66.416-73.744l68.736 67.936 96.752-0.512 67.984-68.672-0.512-96.624-68.736-67.968-96.736 0.512-67.984 68.704 0.496 96.624z" fill="#2F2905" p-id="2244"></path><path d="M608.752 304.48l-70.448-69.632-99.104 0.528-69.696 70.384 0.528 99.024 70.448 69.632 99.12-0.528 69.68-70.384-0.528-99.024z" fill="#FFD800" p-id="2245"></path><path d="M189.232 749.056h124.624v3.856h-124.624v-3.856zM321.584 749.056h19.168v3.856h-19.168v-3.856zM354.176 749.056h44.128v3.856h-44.128v-3.856zM567.104 749.056h84.416v3.856h-84.416v-3.856zM666.848 749.056h26.848v3.856h-26.848v-3.856zM707.12 749.056h109.328v3.856h-109.328v-3.856zM417.488 749.056h136.176v3.856h-136.176v-3.856z" fill="#2F2905" p-id="2246"></path><path d="M458.976 308.592v47.584h6.96l-4.64 15.648h-2.32v8.24l-16.192 5.904v-14.144H411.84v-20l32.224-43.216h14.912z m-31.328 47.584h15.136v-19.616l-15.136 19.616zM468.976 330.208c0.224-2.688 0.528-4.8 0.944-6.336 0.4-1.536 0.928-2.864 1.584-4 0.64-1.136 1.328-2.224 2.048-3.264a18.496 18.496 0 0 1 7.44-6.016c1.696-0.768 3.328-1.264 4.896-1.488 1.568-0.224 3.92-0.384 7.04-0.496l4.528-0.112c2.464-0.032 4.576 0.064 6.304 0.336 1.728 0.256 3.28 0.672 4.64 1.28a20.192 20.192 0 0 1 7.44 5.472c1.232 1.36 2.128 2.672 2.704 3.904a21.552 21.552 0 0 1 2 7.104c0.16 1.392 0.24 2.736 0.24 4.032v29.664c0 2.8-0.064 4.896-0.224 6.272-0.144 1.376-0.512 3.152-1.12 5.312s-1.344 3.84-2.192 5.056a14.864 14.864 0 0 1-2.432 2.8 22.592 22.592 0 0 1-6.624 3.648c-1.296 0.464-2.544 0.8-3.76 1.024-1.216 0.224-2.96 0.4-5.216 0.56s-3.664 0.224-4.176 0.224a41.872 41.872 0 0 1-5.84-0.384 45.2 45.2 0 0 1-5.312-0.88 22.992 22.992 0 0 1-7.488-3.808 24.144 24.144 0 0 1-3.344-3.536 14.976 14.976 0 0 1-2.592-5.392 41.6 41.6 0 0 1-1.168-5.616 40.32 40.32 0 0 1-0.304-5.136v-30.224z m16.304 24.416c0 2.128 0.112 4.064 0.336 5.776a9.072 9.072 0 0 0 4.944 7.12 12.368 12.368 0 0 0 5.328 0.912h0.672c1.552 0 2.96-0.416 4.224-1.248s2.128-1.728 2.576-2.704c0.432-0.976 0.768-2.672 0.976-5.072a89.76 89.76 0 0 0 0.304-4.512v-18.784c0-1.808-0.208-3.696-0.64-5.68-0.416-2-0.928-3.296-1.52-3.92a7.68 7.68 0 0 0-2.752-1.712 13.28 13.28 0 0 0-4.416-0.88l-2.416-0.048a7.232 7.232 0 0 0-2.896 0.768 7.2 7.2 0 0 0-2.4 1.584 11.456 11.456 0 0 0-1.552 2.448c-0.544 1.104-0.8 3.248-0.768 6.416v19.536zM572.144 308.592v47.584h6.976l-4.64 15.648h-2.336v8.24l-16.192 5.904v-14.144h-30.944v-20l32.224-43.216h14.912z m-31.328 47.584h15.136v-19.616l-15.136 19.616z" fill="#F91C1C" p-id="2247"></path><path d="M500.784 270.24m-5.376 0a5.376 5.376 0 1 0 10.752 0 5.376 5.376 0 1 0-10.752 0Z" fill="#FFFFFF" p-id="2248"></path><path d="M442.896 418.208m-5.088 0a5.088 5.088 0 1 0 10.176 0 5.088 5.088 0 1 0-10.176 0Z" fill="#FFFFFF" p-id="2249"></path></svg>